<svg xmlns="http://www.w3.org/2000/svg" id="svg-code" width="578" height="278"><desc>Created with Snap</desc><defs><rect width="30" height="30" id="rectSlu3zj3wq1o"/><marker viewBox="-5 -5 10 10" markerWidth="10" markerHeight="10" orient="auto" refX="0" refY="0" id="mark2"><circle cx="0" cy="0" r="5" fill="#808080" stroke="none" style=""/></marker><marker viewBox="0 -10 10 20" markerWidth="10" markerHeight="20" orient="auto" refX="10" refY="0" id="mark1"><polygon points="0,-10,0,10,10,0" fill="#000000" stroke="none" style=""/></marker></defs><use href="#rectSlu3zj3wq1o" x="0" y="0" fill="#ffffff" style=""/><use href="#rectSlu3zj3wq1o" x="0" y="30" fill="#c0c000" style=""/><use href="#rectSlu3zj3wq1o" x="0" y="60" fill="#0000ff" style=""/><use href="#rectSlu3zj3wq1o" x="0" y="90" fill="#ff0000" style=""/><use href="#rectSlu3zj3wq1o" x="0" y="120" fill="#ffc0c0" style=""/><use href="#rectSlu3zj3wq1o" x="0" y="150" fill="#00c000" style=""/><use href="#rectSlu3zj3wq1o" x="0" y="180" fill="#00ff00" style=""/><use href="#rectSlu3zj3wq1o" x="0" y="210" fill="#ffff00" style=""/><use href="#rectSlu3zj3wq1o" x="0" y="240" fill="#00ffff" style=""/><use href="#rectSlu3zj3wq1o" x="30" y="0" fill="#00c000" style=""/><use href="#rectSlu3zj3wq1o" x="30" y="30" fill="#c0ffc0" style=""/><use href="#rectSlu3zj3wq1o" x="30" y="60" fill="#00c000" style=""/><use href="#rectSlu3zj3wq1o" x="30" y="90" fill="#ffff00" style=""/><use href="#rectSlu3zj3wq1o" x="30" y="120" fill="#c0c000" style=""/><use href="#rectSlu3zj3wq1o" x="30" y="150" fill="#c0c000" style=""/><use href="#rectSlu3zj3wq1o" x="30" y="180" fill="#ff0000" style=""/><use href="#rectSlu3zj3wq1o" x="30" y="210" fill="#ffc0c0" style=""/><use href="#rectSlu3zj3wq1o" x="30" y="240" fill="#00ff00" style=""/><use href="#rectSlu3zj3wq1o" x="60" y="0" fill="#c0ffc0" style=""/><use href="#rectSlu3zj3wq1o" x="60" y="30" fill="#ffc0ff" style=""/><use href="#rectSlu3zj3wq1o" x="60" y="60" fill="#00c000" style=""/><use href="#rectSlu3zj3wq1o" x="60" y="90" fill="#000000" style=""/><use href="#rectSlu3zj3wq1o" x="60" y="120" fill="#ffff00" style=""/><use href="#rectSlu3zj3wq1o" x="60" y="150" fill="#c0c000" style=""/><use href="#rectSlu3zj3wq1o" x="60" y="180" fill="#ff0000" style=""/><use href="#rectSlu3zj3wq1o" x="60" y="210" fill="#c0ffff" style=""/><use href="#rectSlu3zj3wq1o" x="60" y="240" fill="#c0ffc0" style=""/><use href="#rectSlu3zj3wq1o" x="90" y="0" fill="#00c000" style=""/><use href="#rectSlu3zj3wq1o" x="90" y="30" fill="#c0c000" style=""/><use href="#rectSlu3zj3wq1o" x="90" y="60" fill="#00c000" style=""/><use href="#rectSlu3zj3wq1o" x="90" y="90" fill="#0000ff" style=""/><use href="#rectSlu3zj3wq1o" x="90" y="120" fill="#0000ff" style=""/><use href="#rectSlu3zj3wq1o" x="90" y="150" fill="#000000" style=""/><use href="#rectSlu3zj3wq1o" x="90" y="180" fill="#ff0000" style=""/><use href="#rectSlu3zj3wq1o" x="90" y="210" fill="#ff00ff" style=""/><use href="#rectSlu3zj3wq1o" x="90" y="240" fill="#00c000" style=""/><use href="#rectSlu3zj3wq1o" x="120" y="0" fill="#c0ffc0" style=""/><use href="#rectSlu3zj3wq1o" x="120" y="30" fill="#c0c0ff" style=""/><use href="#rectSlu3zj3wq1o" x="120" y="60" fill="#0000c0" style=""/><use href="#rectSlu3zj3wq1o" x="120" y="90" fill="#c0c0ff" style=""/><use href="#rectSlu3zj3wq1o" x="120" y="120" fill="#0000ff" style=""/><use href="#rectSlu3zj3wq1o" x="120" y="150" fill="#0000c0" style=""/><use href="#rectSlu3zj3wq1o" x="120" y="180" fill="#00c000" style=""/><use href="#rectSlu3zj3wq1o" x="120" y="210" fill="#ffc0ff" style=""/><use href="#rectSlu3zj3wq1o" x="120" y="240" fill="#0000c0" style=""/><use href="#rectSlu3zj3wq1o" x="150" y="0" fill="#00c000" style=""/><use href="#rectSlu3zj3wq1o" x="150" y="30" fill="#0000ff" style=""/><use href="#rectSlu3zj3wq1o" x="150" y="60" fill="#c0ffff" style=""/><use href="#rectSlu3zj3wq1o" x="150" y="90" fill="#c00000" style=""/><use href="#rectSlu3zj3wq1o" x="150" y="120" fill="#ff0000" style=""/><use href="#rectSlu3zj3wq1o" x="150" y="150" fill="#ffc0c0" style=""/><use href="#rectSlu3zj3wq1o" x="150" y="180" fill="#ff0000" style=""/><use href="#rectSlu3zj3wq1o" x="150" y="210" fill="#00ff00" style=""/><use href="#rectSlu3zj3wq1o" x="150" y="240" fill="#ff0000" style=""/><use href="#rectSlu3zj3wq1o" x="180" y="0" fill="#ffffff" style=""/><use href="#rectSlu3zj3wq1o" x="180" y="30" fill="#0000c0" style=""/><use href="#rectSlu3zj3wq1o" x="180" y="60" fill="#c0c0ff" style=""/><use href="#rectSlu3zj3wq1o" x="180" y="90" fill="#000000" style=""/><use href="#rectSlu3zj3wq1o" x="180" y="120" fill="#00ff00" style=""/><use href="#rectSlu3zj3wq1o" x="180" y="150" fill="#0000ff" style=""/><use href="#rectSlu3zj3wq1o" x="180" y="180" fill="#c000c0" style=""/><use href="#rectSlu3zj3wq1o" x="180" y="210" fill="#0000c0" style=""/><use href="#rectSlu3zj3wq1o" x="180" y="240" fill="#ffc0ff" style=""/><use href="#rectSlu3zj3wq1o" x="210" y="0" fill="#0000c0" style=""/><use href="#rectSlu3zj3wq1o" x="210" y="30" fill="#c000c0" style=""/><use href="#rectSlu3zj3wq1o" x="210" y="60" fill="#ffc0ff" style=""/><use href="#rectSlu3zj3wq1o" x="210" y="90" fill="#00c0c0" style=""/><use href="#rectSlu3zj3wq1o" x="210" y="120" fill="#c0c000" style=""/><use href="#rectSlu3zj3wq1o" x="210" y="150" fill="#000000" style=""/><use href="#rectSlu3zj3wq1o" x="210" y="180" fill="#c0c0ff" style=""/><use href="#rectSlu3zj3wq1o" x="210" y="210" fill="#ffff00" style=""/><use href="#rectSlu3zj3wq1o" x="210" y="240" fill="#c000c0" style=""/><use href="#rectSlu3zj3wq1o" x="240" y="0" fill="#00ff00" style=""/><use href="#rectSlu3zj3wq1o" x="240" y="30" fill="#ffc0ff" style=""/><use href="#rectSlu3zj3wq1o" x="240" y="60" fill="#ff00ff" style=""/><use href="#rectSlu3zj3wq1o" x="240" y="90" fill="#00c0c0" style=""/><use href="#rectSlu3zj3wq1o" x="240" y="120" fill="#ffffff" style=""/><use href="#rectSlu3zj3wq1o" x="240" y="150" fill="#00c0c0" style=""/><use href="#rectSlu3zj3wq1o" x="240" y="180" fill="#ffc0ff" style=""/><use href="#rectSlu3zj3wq1o" x="240" y="210" fill="#00ffff" style=""/><use href="#rectSlu3zj3wq1o" x="240" y="240" fill="#c0c000" style=""/><use href="#rectSlu3zj3wq1o" x="270" y="0" fill="#ff0000" style=""/><use href="#rectSlu3zj3wq1o" x="270" y="30" fill="#00ffff" style=""/><use href="#rectSlu3zj3wq1o" x="270" y="60" fill="#c000c0" style=""/><use href="#rectSlu3zj3wq1o" x="270" y="90" fill="#000000" style=""/><use href="#rectSlu3zj3wq1o" x="270" y="120" fill="#ffffff" style=""/><use href="#rectSlu3zj3wq1o" x="270" y="150" fill="#00c0c0" style=""/><use href="#rectSlu3zj3wq1o" x="270" y="180" fill="#ff00ff" style=""/><use href="#rectSlu3zj3wq1o" x="270" y="210" fill="#c0ffff" style=""/><use href="#rectSlu3zj3wq1o" x="270" y="240" fill="#c00000" style=""/><use href="#rectSlu3zj3wq1o" x="300" y="0" fill="#0000ff" style=""/><use href="#rectSlu3zj3wq1o" x="300" y="30" fill="#c0ffff" style=""/><use href="#rectSlu3zj3wq1o" x="300" y="60" fill="#c0ffc0" style=""/><use href="#rectSlu3zj3wq1o" x="300" y="90" fill="#00c000" style=""/><use href="#rectSlu3zj3wq1o" x="300" y="120" fill="#ffc0ff" style=""/><use href="#rectSlu3zj3wq1o" x="300" y="150" fill="#000000" style=""/><use href="#rectSlu3zj3wq1o" x="300" y="180" fill="#c000c0" style=""/><use href="#rectSlu3zj3wq1o" x="300" y="210" fill="#00ff00" style=""/><use href="#rectSlu3zj3wq1o" x="300" y="240" fill="#c000c0" style=""/><use href="#rectSlu3zj3wq1o" x="330" y="0" fill="#c000c0" style=""/><use href="#rectSlu3zj3wq1o" x="330" y="30" fill="#c0ffff" style=""/><use href="#rectSlu3zj3wq1o" x="330" y="60" fill="#c0ffff" style=""/><use href="#rectSlu3zj3wq1o" x="330" y="90" fill="#00ffff" style=""/><use href="#rectSlu3zj3wq1o" x="330" y="120" fill="#ffffff" style=""/><use href="#rectSlu3zj3wq1o" x="330" y="150" fill="#c0c000" style=""/><use href="#rectSlu3zj3wq1o" x="330" y="180" fill="#ffffc0" style=""/><use href="#rectSlu3zj3wq1o" x="330" y="210" fill="#0000ff" style=""/><use href="#rectSlu3zj3wq1o" x="330" y="240" fill="#c0c000" style=""/><use href="#rectSlu3zj3wq1o" x="360" y="0" fill="#ffc0ff" style=""/><use href="#rectSlu3zj3wq1o" x="360" y="30" fill="#000000" style=""/><use href="#rectSlu3zj3wq1o" x="360" y="60" fill="#000000" style=""/><use href="#rectSlu3zj3wq1o" x="360" y="90" fill="#ffc0ff" style=""/><use href="#rectSlu3zj3wq1o" x="360" y="120" fill="#ffffff" style=""/><use href="#rectSlu3zj3wq1o" x="360" y="150" fill="#c0ffff" style=""/><use href="#rectSlu3zj3wq1o" x="360" y="180" fill="#000000" style=""/><use href="#rectSlu3zj3wq1o" x="360" y="210" fill="#000000" style=""/><use href="#rectSlu3zj3wq1o" x="360" y="240" fill="#00c0c0" style=""/><use href="#rectSlu3zj3wq1o" x="390" y="0" fill="#c00000" style=""/><use href="#rectSlu3zj3wq1o" x="390" y="30" fill="#000000" style=""/><use href="#rectSlu3zj3wq1o" x="390" y="60" fill="#ff0000" style=""/><use href="#rectSlu3zj3wq1o" x="390" y="90" fill="#000000" style=""/><use href="#rectSlu3zj3wq1o" x="390" y="120" fill="#c0c000" style=""/><use href="#rectSlu3zj3wq1o" x="390" y="150" fill="#000000" style=""/><use href="#rectSlu3zj3wq1o" x="390" y="180" fill="#00c000" style=""/><use href="#rectSlu3zj3wq1o" x="390" y="210" fill="#000000" style=""/><use href="#rectSlu3zj3wq1o" x="390" y="240" fill="#00ffff" style=""/><use href="#rectSlu3zj3wq1o" x="420" y="0" fill="#c0ffff" style=""/><use href="#rectSlu3zj3wq1o" x="420" y="30" fill="#c0ffff" style=""/><use href="#rectSlu3zj3wq1o" x="420" y="60" fill="#ff0000" style=""/><use href="#rectSlu3zj3wq1o" x="420" y="90" fill="#ffff00" style=""/><use href="#rectSlu3zj3wq1o" x="420" y="120" fill="#c0c000" style=""/><use href="#rectSlu3zj3wq1o" x="420" y="150" fill="#ffff00" style=""/><use href="#rectSlu3zj3wq1o" x="420" y="180" fill="#00c000" style=""/><use href="#rectSlu3zj3wq1o" x="420" y="210" fill="#ff00ff" style=""/><use href="#rectSlu3zj3wq1o" x="420" y="240" fill="#ff00ff" style=""/><use href="#rectSlu3zj3wq1o" x="450" y="0" fill="#ffffc0" style=""/><use href="#rectSlu3zj3wq1o" x="450" y="30" fill="#000000" style=""/><use href="#rectSlu3zj3wq1o" x="450" y="60" fill="#ff0000" style=""/><use href="#rectSlu3zj3wq1o" x="450" y="90" fill="#000000" style=""/><use href="#rectSlu3zj3wq1o" x="450" y="120" fill="#c0c000" style=""/><use href="#rectSlu3zj3wq1o" x="450" y="150" fill="#000000" style=""/><use href="#rectSlu3zj3wq1o" x="450" y="180" fill="#00c000" style=""/><use href="#rectSlu3zj3wq1o" x="450" y="210" fill="#000000" style=""/><use href="#rectSlu3zj3wq1o" x="450" y="240" fill="#c0ffc0" style=""/><use href="#rectSlu3zj3wq1o" x="480" y="0" fill="#ff0000" style=""/><use href="#rectSlu3zj3wq1o" x="480" y="30" fill="#000000" style=""/><use href="#rectSlu3zj3wq1o" x="480" y="60" fill="#000000" style=""/><use href="#rectSlu3zj3wq1o" x="480" y="90" fill="#ffc0ff" style=""/><use href="#rectSlu3zj3wq1o" x="480" y="120" fill="#ffffc0" style=""/><use href="#rectSlu3zj3wq1o" x="480" y="150" fill="#c0ffff" style=""/><use href="#rectSlu3zj3wq1o" x="480" y="180" fill="#000000" style=""/><use href="#rectSlu3zj3wq1o" x="480" y="210" fill="#000000" style=""/><use href="#rectSlu3zj3wq1o" x="480" y="240" fill="#ffff00" style=""/><use href="#rectSlu3zj3wq1o" x="510" y="0" fill="#c0c0ff" style=""/><use href="#rectSlu3zj3wq1o" x="510" y="30" fill="#ff0000" style=""/><use href="#rectSlu3zj3wq1o" x="510" y="60" fill="#ffffff" style=""/><use href="#rectSlu3zj3wq1o" x="510" y="90" fill="#ffffff" style=""/><use href="#rectSlu3zj3wq1o" x="510" y="120" fill="#0000ff" style=""/><use href="#rectSlu3zj3wq1o" x="510" y="150" fill="#ffffff" style=""/><use href="#rectSlu3zj3wq1o" x="510" y="180" fill="#ffffff" style=""/><use href="#rectSlu3zj3wq1o" x="510" y="210" fill="#ff0000" style=""/><use href="#rectSlu3zj3wq1o" x="510" y="240" fill="#00ffff" style=""/><use href="#rectSlu3zj3wq1o" x="540" y="0" fill="#c0ffc0" style=""/><use href="#rectSlu3zj3wq1o" x="540" y="30" fill="#ffc0c0" style=""/><use href="#rectSlu3zj3wq1o" x="540" y="60" fill="#ffff00" style=""/><use href="#rectSlu3zj3wq1o" x="540" y="90" fill="#c0c000" style=""/><use href="#rectSlu3zj3wq1o" x="540" y="120" fill="#c000c0" style=""/><use href="#rectSlu3zj3wq1o" x="540" y="150" fill="#c00000" style=""/><use href="#rectSlu3zj3wq1o" x="540" y="180" fill="#ffc0c0" style=""/><use href="#rectSlu3zj3wq1o" x="540" y="210" fill="#ffffc0" style=""/><use href="#rectSlu3zj3wq1o" x="540" y="240" fill="#ffc0ff" style=""/></svg>